<?xml version="1.0" standalone="no"?>
<!DOCTYPE svg PUBLIC "-//W3C//DTD SVG 20010904//EN"
 "http://www.w3.org/TR/2001/REC-SVG-20010904/DTD/svg10.dtd">
<svg version="1.0" xmlns="http://www.w3.org/2000/svg"
 width="400.000000pt" height="130.000000pt" viewBox="0 0 400.000000 130.000000"
 preserveAspectRatio="xMidYMid meet">

<g transform="translate(0.000000,130.000000) scale(0.100000,-0.100000)"
fill="#000000" stroke="none">
<path d="M1777 1213 c-4 -3 -7 -15 -7 -27 0 -20 0 -20 15 0 8 10 15 22 15 27
0 9 -14 9 -23 0z"/>
<path d="M2145 1100 l0 -80 30 1 c17 0 24 3 18 6 -7 2 -13 19 -13 36 l1 32 32
-38 c18 -21 41 -37 52 -36 11 0 15 3 8 5 -6 3 -23 20 -37 39 -24 31 -25 35
-11 62 8 15 20 28 27 28 20 0 24 20 5 23 -11 2 -25 -10 -38 -32 -11 -20 -25
-36 -30 -36 -13 0 -11 44 3 58 9 9 5 12 -17 12 l-30 0 0 -80z"/>
<path d="M2525 1100 l0 -80 30 1 c17 0 24 3 18 6 -9 3 -13 28 -13 74 0 65 1
69 23 69 13 0 28 -5 35 -12 13 -13 27 -5 17 11 -3 6 -30 11 -58 11 l-52 0 0
-80z"/>
<path d="M2650 1158 c0 -21 1 -21 13 -3 8 10 19 15 25 11 17 -10 16 -133 0
-139 -7 -3 3 -6 22 -6 26 -1 31 2 22 11 -15 15 -16 124 -2 133 6 4 18 1 26 -6
16 -13 30 -6 19 10 -3 6 -33 11 -66 11 -54 0 -59 -2 -59 -22z"/>
<path d="M1026 1149 c-20 -16 -26 -29 -26 -58 0 -20 6 -44 13 -53 20 -24 71
-56 103 -64 l29 -7 -25 21 -25 20 25 20 c19 15 25 29 25 62 0 71 -63 103 -119
59z m87 -35 c11 -37 -8 -87 -34 -92 -26 -5 -49 26 -49 67 0 44 16 63 50 59 18
-2 27 -11 33 -34z"/>
<path d="M1358 1158 c7 -7 12 -37 12 -68 0 -31 -5 -61 -12 -68 -9 -9 -6 -12
16 -12 24 0 26 2 17 14 -7 8 -11 32 -9 53 l4 38 24 -52 c13 -29 27 -53 31 -53
3 0 17 24 30 53 l23 52 4 -38 c2 -21 -2 -45 -9 -53 -9 -12 -6 -14 22 -14 26 0
30 3 21 12 -7 7 -12 37 -12 68 0 31 5 61 12 68 9 9 7 12 -9 12 -16 0 -28 -14
-48 -57 l-27 -58 -29 58 c-22 43 -35 57 -51 57 -17 0 -19 -3 -10 -12z"/>
<path d="M1553 1155 c-3 -9 -2 -19 2 -23 4 -4 10 -1 12 6 3 6 13 12 24 12 17
0 19 -8 19 -58 0 -32 -5 -63 -12 -70 -9 -9 -4 -12 22 -12 26 0 31 3 22 12 -7
7 -12 38 -12 70 0 50 2 58 19 58 11 0 21 -6 24 -12 2 -7 8 -10 12 -6 4 4 5 14
2 23 -5 11 -22 15 -67 15 -45 0 -62 -4 -67 -15z"/>
<path d="M1700 1165 c0 -3 14 -24 31 -48 24 -33 30 -49 25 -74 -4 -29 -2 -33
18 -33 19 0 21 4 18 34 -3 26 3 45 27 80 l32 46 -25 0 c-18 0 -23 -4 -20 -17
2 -10 -3 -27 -11 -37 -15 -20 -15 -20 -30 0 -8 10 -13 27 -11 37 3 13 -2 17
-25 17 -16 0 -29 -2 -29 -5z"/>
<path d="M1990 1090 c0 -47 4 -80 10 -80 6 0 10 33 10 80 0 47 -4 80 -10 80
-6 0 -10 -33 -10 -80z"/>
<path d="M2797 1162 c15 -10 63 -104 57 -114 -3 -4 -14 -8 -25 -8 -22 0 -26
-15 -5 -23 19 -7 33 11 71 89 l31 64 -25 0 c-15 0 -21 -3 -14 -8 8 -5 7 -16
-4 -42 l-14 -35 -15 34 c-7 18 -11 37 -8 42 3 5 -10 9 -28 9 -18 0 -28 -4 -21
-8z"/>
<path d="M2318 1119 c-10 -5 -18 -15 -18 -21 0 -6 6 -6 15 2 11 9 19 10 27 2
7 -7 1 -15 -21 -26 -17 -9 -31 -20 -31 -25 0 -16 25 -28 56 -29 32 -1 32 0 27
41 -5 40 -18 67 -32 67 -3 0 -14 -5 -23 -11z m32 -58 c0 -12 -20 -25 -27 -18
-7 7 6 27 18 27 5 0 9 -4 9 -9z"/>
<path d="M2409 1122 c0 -4 0 -36 1 -71 1 -44 -3 -67 -12 -72 -8 -6 -1 -8 22
-8 19 0 29 3 23 6 -24 9 -13 38 20 53 23 11 33 23 35 44 2 16 -1 33 -7 39 -11
11 -81 19 -82 9z m66 -47 c0 -23 -5 -31 -22 -33 -19 -3 -23 1 -23 26 0 33 8
44 30 40 9 -2 15 -14 15 -33z"/>
<path d="M1183 1114 c-15 -7 -17 -34 -3 -34 6 0 10 5 10 10 0 6 7 10 15 10 21
0 19 -18 -4 -25 -31 -10 -46 -32 -32 -49 15 -18 83 -16 89 2 2 7 -1 12 -7 12
-5 0 -11 17 -13 38 -3 37 -22 50 -55 36z m34 -69 c-4 -8 -11 -15 -17 -15 -14
0 -13 27 3 33 16 6 21 1 14 -18z"/>
<path d="M1268 1109 c-11 -7 -11 -9 1 -9 9 0 12 -12 9 -45 -3 -41 -1 -45 20
-45 19 0 21 3 11 18 -16 25 -4 73 16 66 9 -4 15 0 15 9 0 17 -48 21 -72 6z"/>
<path d="M1500 885 c-42 -11 -154 -14 -470 -15 -466 -1 -644 -16 -711 -58 -19
-12 -64 -36 -101 -53 -59 -28 -85 -49 -60 -49 18 0 143 58 163 76 20 18 44 19
542 21 287 1 523 6 524 10 4 11 1246 5 1253 -6 3 -5 191 -12 425 -16 230 -3
421 -8 423 -10 3 -2 12 -1 21 4 29 15 143 3 173 -19 22 -16 193 -100 204 -100
2 0 4 6 4 13 0 8 -51 41 -113 75 l-113 61 -172 25 c-161 24 -195 26 -554 26
-306 0 -394 3 -438 15 -77 21 -917 20 -1000 0z"/>
<path d="M1510 711 c0 -50 -4 -92 -9 -95 -5 -4 -83 -9 -173 -13 l-163 -6 0 34
c0 28 -4 35 -22 37 -20 3 -23 -1 -23 -32 0 -33 -3 -36 -28 -36 -24 0 -27 4
-27 33 0 26 -4 33 -22 35 -20 3 -23 -1 -23 -32 0 -33 -2 -36 -30 -36 -28 0
-30 3 -30 36 0 31 -3 35 -22 32 -19 -2 -23 -9 -23 -35 0 -29 -3 -33 -27 -33
-25 0 -28 3 -28 36 0 31 -3 35 -22 32 -19 -2 -23 -9 -23 -36 0 -31 -2 -33 -30
-30 -25 3 -29 7 -30 33 0 23 -5 31 -22 33 -20 3 -23 -1 -23 -32 0 -31 -3 -36
-24 -36 -21 0 -25 6 -28 33 -2 24 -8 32 -23 32 -15 0 -21 -8 -23 -34 -3 -31
-5 -33 -34 -27 -17 3 -37 6 -44 6 -9 0 -14 11 -14 29 0 28 -2 29 -45 29 -43 0
-45 -1 -45 -29 0 -26 -3 -29 -32 -29 -28 0 -114 -23 -228 -60 l-25 -8 25 -1
c14 -1 61 10 105 24 l80 25 577 0 577 0 -2 -122 -2 -123 -673 -3 c-532 -2
-673 -5 -669 -15 9 -29 3061 -33 3079 -4 6 9 8 8 8 -3 0 -13 1 -13 10 0 6 10
10 11 10 3 0 -7 7 -13 15 -13 8 0 15 6 15 13 0 8 4 7 10 -3 9 -13 10 -13 10 0
0 13 1 13 10 0 9 -13 11 -13 20 0 9 13 10 13 10 0 0 -13 1 -13 10 0 6 10 10
11 10 3 0 -7 7 -13 15 -13 8 0 15 6 15 13 0 8 4 7 10 -3 9 -13 10 -13 10 0 0
12 2 12 9 2 9 -14 32 -13 43 3 5 6 8 5 8 -2 0 -10 47 -13 200 -13 171 0 200 2
200 15 0 13 -28 15 -190 15 -162 0 -190 2 -190 15 0 8 9 20 20 27 24 15 28 68
5 68 -9 0 -15 -9 -15 -25 0 -22 -4 -25 -32 -25 -35 1 -68 19 -68 39 0 16 -37
13 -44 -4 -7 -20 -56 -20 -56 0 0 9 -9 15 -25 15 -15 0 -25 -6 -25 -14 0 -7
-8 -16 -17 -20 -10 -3 -24 -9 -30 -12 -9 -4 -13 3 -13 20 0 19 -5 26 -20 26
-15 0 -20 -7 -20 -24 0 -18 -6 -26 -22 -28 -17 -2 -22 -9 -21 -26 l3 -22 -209
0 c-114 0 -249 -3 -299 -6 l-92 -7 0 124 0 124 567 -3 c311 -2 577 -8 590 -13
17 -6 23 -17 24 -41 2 -31 2 -31 6 -5 5 32 -1 31 91 8 39 -11 74 -16 77 -11 3
4 -10 10 -28 14 -17 3 -68 17 -112 30 -44 14 -97 27 -117 31 -35 5 -38 8 -38
40 0 35 0 35 -42 32 -41 -2 -43 -3 -43 -34 0 -33 0 -33 -47 -33 -47 0 -48 1
-48 30 0 23 -4 30 -20 30 -16 0 -20 -7 -20 -30 0 -27 -3 -30 -30 -30 -27 0
-30 3 -30 30 0 23 -4 30 -20 30 -16 0 -20 -7 -20 -30 0 -27 -3 -30 -32 -31
-151 -4 -581 -3 -584 2 -2 4 6 9 17 12 15 4 20 12 17 29 -5 35 -36 36 -40 1
-3 -27 -6 -28 -60 -31 l-58 -3 0 90 c0 49 -4 93 -10 96 -5 3 -10 1 -10 -4 0
-16 -90 -14 -92 2 -1 6 -4 -31 -7 -83 l-6 -95 -47 -3 -47 -3 -3 93 -3 93 -60
0 -60 0 -3 -93 -3 -93 -47 3 -47 3 -3 90 -3 90 -59 0 -60 0 0 -92 0 -93 -50 0
-50 0 0 95 0 96 -62 -3 -63 -3 -1 -90 -1 -90 -48 0 -48 0 2 93 2 92 -65 0 -66
0 0 -89z m560 49 c0 -17 -7 -20 -44 -20 -25 0 -47 3 -49 8 -3 4 15 5 39 3 35
-2 44 0 44 13 0 9 2 16 5 16 3 0 5 -9 5 -20z m-455 -15 c6 -2 -11 -4 -37 -4
-27 -1 -48 3 -48 7 0 7 62 5 85 -3z m208 -2 c-13 -2 -33 -2 -45 0 -13 2 -3 4
22 4 25 0 35 -2 23 -4z m687 -5 c0 -5 -18 -8 -39 -8 -22 0 -42 3 -44 8 -3 4
15 7 39 7 24 0 44 -3 44 -7z m-780 -183 c0 -24 -5 -35 -15 -35 -9 0 -15 9 -15
25 0 16 -6 25 -15 25 -9 0 -15 -9 -15 -25 0 -18 -5 -25 -20 -25 -15 0 -20 7
-20 28 0 38 6 42 57 42 43 0 43 0 43 -35z m228 -2 c-4 -46 -28 -58 -28 -14 0
24 -4 31 -20 31 -15 0 -20 -7 -20 -25 0 -16 -6 -25 -15 -25 -10 0 -15 11 -15
35 l0 35 51 0 50 0 -3 -37z m222 -4 c0 -33 -3 -40 -17 -37 -11 2 -19 14 -21
31 -5 39 -32 36 -32 -4 0 -44 -24 -32 -28 14 l-3 37 50 0 51 0 0 -41z m225 4
c-3 -45 -28 -53 -33 -10 -5 38 -32 36 -32 -3 0 -20 -5 -30 -15 -30 -11 0 -15
11 -15 40 l0 40 48 0 49 0 -2 -37z m-566 -5 c-2 -29 -2 -30 -6 -6 -4 22 -9 26
-39 26 -30 0 -34 -3 -35 -26 -1 -18 -3 -21 -6 -9 -9 34 5 47 47 47 39 0 40 -1
39 -32z m669 -5 c-1 -36 -1 -36 -5 -6 -4 28 -7 31 -38 31 -31 0 -34 -3 -38
-31 -4 -30 -4 -30 -5 6 l-2 37 45 0 45 0 -2 -37z m-439 0 c-2 -24 -2 -25 -6
-5 -4 18 -11 22 -38 22 -27 0 -34 -4 -38 -22 -4 -20 -4 -19 -6 5 -1 26 1 27
44 27 43 0 45 -1 44 -27z m218 -10 c-3 -10 -5 -4 -5 12 0 17 2 24 5 18 2 -7 2
-21 0 -30z m-544 -106 c-1 -15 2 -27 8 -27 5 0 9 13 9 29 0 24 4 29 26 29 22
0 25 -4 21 -24 -2 -14 0 -27 4 -30 5 -3 9 9 9 25 0 24 4 31 19 31 18 0 20 -6
18 -57 -3 -58 -23 -85 -34 -44 -3 11 -9 18 -14 15 -5 -3 -7 -9 -4 -14 3 -5 1
-11 -5 -15 -6 -3 -10 4 -10 16 0 12 -3 19 -7 15 -5 -4 -8 -12 -8 -18 0 -6 -12
-12 -27 -14 -19 -2 -28 2 -28 12 0 8 -4 14 -10 14 -5 0 -10 -6 -10 -14 0 -9
-11 -13 -32 -12 -32 2 -32 2 -35 58 l-2 56 57 -2 c55 -2 57 -3 55 -29z m177
-21 c0 -94 -25 -75 -29 22 -1 22 3 32 14 32 12 0 15 -12 15 -54z m87 -3 c-2
-44 -6 -58 -17 -58 -11 0 -15 10 -14 38 1 20 -3 37 -7 37 -5 0 -9 -18 -9 -41
0 -65 -24 -43 -27 24 l-3 57 40 0 40 0 -3 -57z m64 40 c1 -17 2 -17 6 0 3 12
14 17 38 17 l34 0 -2 -57 c-3 -61 -22 -77 -22 -18 0 19 -5 35 -11 35 -6 0 -11
-16 -10 -37 1 -21 -4 -38 -11 -40 -9 -3 -13 8 -13 36 0 23 -5 41 -11 41 -6 0
-8 -7 -5 -16 10 -26 -4 -65 -23 -62 -12 2 -17 17 -19 61 -4 55 -3 57 22 57 18
0 26 -6 27 -17z m146 -40 c-2 -45 -6 -59 -20 -61 -14 -3 -16 5 -16 57 1 52 4
61 20 61 15 0 18 -8 16 -57z m31 2 c0 -30 -4 -55 -9 -55 -5 0 -9 25 -9 55 0
30 4 55 9 55 4 0 9 -25 9 -55z m32 0 c0 -30 -4 -55 -10 -55 -5 0 -9 25 -9 55
1 30 5 55 10 55 5 0 9 -25 9 -55z m41 38 c1 -17 2 -17 6 0 10 37 22 14 20 -37
-2 -58 -16 -90 -18 -40 l-1 29 -13 -30 c-15 -31 -15 -30 -21 48 -2 36 0 47 11
47 8 0 16 -8 16 -17z m65 -30 c-2 -27 -4 -54 -5 -61 0 -7 -5 -11 -11 -7 -15 9
-10 115 6 115 9 0 12 -13 10 -47z m962 -10 c-21 -2 -55 -2 -75 0 -21 2 -4 4
37 4 41 0 58 -2 38 -4z m75 0 c-7 -2 -19 -2 -25 0 -7 3 -2 5 12 5 14 0 19 -2
13 -5z m-253 -55 c0 -16 -3 -19 -11 -11 -6 6 -8 16 -5 22 11 17 16 13 16 -11z
m27 0 c-3 -8 -6 -5 -6 6 -1 11 2 17 5 13 3 -3 4 -12 1 -19z m33 7 c0 -8 -4
-15 -10 -15 -5 0 -10 7 -10 15 0 8 5 15 10 15 6 0 10 -7 10 -15z m17 -7 c-3
-8 -6 -5 -6 6 -1 11 2 17 5 13 3 -3 4 -12 1 -19z m33 7 c0 -8 -4 -15 -10 -15
-5 0 -10 7 -10 15 0 8 5 15 10 15 6 0 10 -7 10 -15z m27 -7 c-3 -8 -6 -5 -6 6
-1 11 2 17 5 13 3 -3 4 -12 1 -19z m28 13 c3 -5 1 -12 -5 -16 -5 -3 -10 1 -10
9 0 18 6 21 15 7z m22 -13 c-3 -8 -6 -5 -6 6 -1 11 2 17 5 13 3 -3 4 -12 1
-19z m33 7 c0 -8 -4 -15 -10 -15 -5 0 -10 7 -10 15 0 8 5 15 10 15 6 0 10 -7
10 -15z m50 0 c0 -6 -7 -12 -15 -12 -8 0 -15 6 -15 12 0 6 7 12 15 12 8 0 15
-6 15 -12z m50 0 c0 -8 -9 -15 -20 -15 -11 0 -20 7 -20 15 0 8 9 15 20 15 11
0 20 -7 20 -15z"/>
<path d="M1660 410 c0 -5 5 -10 10 -10 6 0 10 5 10 10 0 6 -4 10 -10 10 -5 0
-10 -4 -10 -10z"/>
<path d="M1700 410 c0 -5 5 -10 10 -10 6 0 10 5 10 10 0 6 -4 10 -10 10 -5 0
-10 -4 -10 -10z"/>
<path d="M1775 410 c3 -5 8 -10 11 -10 2 0 4 5 4 10 0 6 -5 10 -11 10 -5 0 -7
-4 -4 -10z"/>
<path d="M2310 410 c0 -5 5 -10 10 -10 6 0 10 5 10 10 0 6 -4 10 -10 10 -5 0
-10 -4 -10 -10z"/>
<path d="M1670 771 c0 -21 5 -31 16 -31 11 0 14 8 12 27 -4 39 -28 42 -28 4z"/>
<path d="M1897 794 c-4 -4 -7 -18 -7 -31 0 -17 6 -23 21 -23 16 0 20 5 17 27
-3 26 -18 39 -31 27z"/>
<path d="M2117 794 c-4 -4 -7 -18 -7 -31 0 -17 6 -23 21 -23 16 0 20 5 17 27
-3 26 -18 39 -31 27z"/>
<path d="M2347 793 c-13 -13 -7 -53 8 -53 10 0 15 10 15 30 0 29 -9 38 -23 23z"/>
<path d="M433 764 c-12 -32 2 -49 45 -52 42 -3 42 -3 42 32 0 34 -1 35 -41 34
-24 0 -43 -6 -46 -14z"/>
<path d="M614 766 c-10 -27 1 -51 24 -54 21 -3 23 0 20 30 -3 35 -33 52 -44
24z"/>
<path d="M714 766 c-10 -26 0 -51 21 -51 16 0 20 7 20 30 0 33 -30 49 -41 21z"/>
<path d="M820 745 c0 -28 4 -35 20 -35 16 0 20 7 20 35 0 28 -4 35 -20 35 -16
0 -20 -7 -20 -35z"/>
<path d="M922 748 c2 -25 8 -33 23 -33 30 0 27 59 -4 63 -20 3 -22 0 -19 -30z"/>
<path d="M1027 773 c-4 -3 -7 -17 -7 -30 0 -18 5 -23 25 -23 21 0 25 5 25 30
0 22 -5 30 -18 30 -10 0 -22 -3 -25 -7z"/>
<path d="M1120 751 c0 -27 4 -31 26 -31 22 0 25 4 22 28 -2 19 -9 28 -25 30
-20 3 -23 -1 -23 -27z"/>
<path d="M1230 750 c0 -23 4 -30 20 -30 16 0 20 7 20 30 0 23 -4 30 -20 30
-16 0 -20 -7 -20 -30z"/>
<path d="M1340 751 c0 -25 4 -31 21 -31 16 0 20 5 17 27 -2 17 -10 29 -20 31
-14 3 -18 -3 -18 -27z"/>
<path d="M2650 745 c0 -29 3 -36 18 -33 11 2 17 13 17 33 0 20 -6 31 -17 33
-15 3 -18 -4 -18 -33z"/>
<path d="M2750 745 c0 -28 4 -35 20 -35 16 0 20 7 20 35 0 28 -4 35 -20 35
-16 0 -20 -7 -20 -35z"/>
<path d="M2860 745 c0 -28 4 -35 20 -35 16 0 20 7 20 35 0 28 -4 35 -20 35
-16 0 -20 -7 -20 -35z"/>
<path d="M2954 766 c-10 -26 0 -51 21 -51 16 0 20 7 20 30 0 33 -30 49 -41 21z"/>
<path d="M327 763 c-4 -3 -7 -19 -7 -35 0 -40 24 -31 28 10 3 30 -6 41 -21 25z"/>
<path d="M3060 740 c0 -23 4 -30 20 -30 16 0 20 7 20 30 0 23 -4 30 -20 30
-16 0 -20 -7 -20 -30z"/>
<path d="M3160 739 c0 -26 3 -30 23 -27 16 2 23 11 25 31 3 23 0 27 -22 27
-22 0 -26 -4 -26 -31z"/>
<path d="M3262 743 c2 -20 9 -29 26 -31 19 -3 22 1 22 27 0 27 -4 31 -26 31
-22 0 -25 -4 -22 -27z"/>
<path d="M3360 739 c0 -26 3 -30 23 -27 16 2 23 11 25 31 3 23 0 27 -22 27
-22 0 -26 -4 -26 -31z"/>
<path d="M3500 740 c0 -29 2 -30 45 -30 43 0 45 1 45 30 0 29 -2 30 -45 30
-43 0 -45 -1 -45 -30z"/>
<path d="M3670 726 c0 -19 5 -38 10 -41 6 -4 10 8 10 29 0 19 -4 38 -10 41 -6
4 -10 -8 -10 -29z"/>
<path d="M302 720 c0 -19 2 -27 5 -17 2 9 2 25 0 35 -3 9 -5 1 -5 -18z"/>
<path d="M279 738 c-6 -24 -5 -58 2 -58 5 0 9 14 9 30 0 17 -2 30 -5 30 -3 0
-5 -1 -6 -2z"/>
<path d="M252 700 c0 -19 2 -27 5 -17 2 9 2 25 0 35 -3 9 -5 1 -5 -18z"/>
<path d="M3712 700 c0 -19 2 -27 5 -17 2 9 2 25 0 35 -3 9 -5 1 -5 -18z"/>
<path d="M232 690 c0 -19 2 -27 5 -17 2 9 2 25 0 35 -3 9 -5 1 -5 -18z"/>
<path d="M3732 690 c0 -19 2 -27 5 -17 2 9 2 25 0 35 -3 9 -5 1 -5 -18z"/>
<path d="M193 698 c-16 -8 -23 -20 -23 -39 0 -27 2 -28 25 -17 18 8 25 19 25
40 0 15 -1 28 -2 27 -2 0 -13 -5 -25 -11z"/>
<path d="M1670 670 c0 -29 4 -40 15 -40 11 0 15 11 15 40 0 29 -4 40 -15 40
-11 0 -15 -11 -15 -40z"/>
<path d="M1890 670 c0 -32 4 -40 18 -40 14 0 17 8 17 40 0 32 -3 40 -17 40
-14 0 -18 -8 -18 -40z"/>
<path d="M2110 670 c0 -33 3 -40 20 -40 17 0 20 7 20 40 0 33 -3 40 -20 40
-17 0 -20 -7 -20 -40z"/>
<path d="M2340 670 c0 -29 4 -40 15 -40 11 0 15 11 15 40 0 29 -4 40 -15 40
-11 0 -15 -11 -15 -40z"/>
<path d="M3755 685 c0 -14 3 -25 8 -25 4 0 7 11 7 25 0 14 -3 25 -7 25 -5 0
-8 -11 -8 -25z"/>
<path d="M3782 670 c0 -19 2 -27 5 -17 2 9 2 25 0 35 -3 9 -5 1 -5 -18z"/>
<path d="M327 683 c-14 -13 -7 -63 8 -63 10 0 15 11 15 35 0 33 -8 43 -23 28z"/>
<path d="M3800 664 c0 -16 10 -28 29 -39 28 -14 30 -14 34 8 4 19 4 18 6 -5 1
-36 21 -36 21 0 0 23 -6 29 -45 43 l-45 17 0 -24z"/>
<path d="M302 640 c0 -19 2 -27 5 -17 2 9 2 25 0 35 -3 9 -5 1 -5 -18z"/>
<path d="M1224 655 c-9 -23 3 -45 26 -45 16 0 20 7 20 30 0 23 -4 30 -20 30
-11 0 -23 -7 -26 -15z"/>
<path d="M1340 639 c0 -24 4 -30 18 -27 10 2 18 14 20 31 3 22 -1 27 -17 27
-17 0 -21 -6 -21 -31z"/>
<path d="M2750 641 c0 -27 4 -31 26 -31 22 0 25 4 22 28 -2 19 -9 28 -25 30
-20 3 -23 -1 -23 -27z"/>
<path d="M2860 640 c0 -23 4 -30 20 -30 16 0 20 7 20 30 0 23 -4 30 -20 30
-16 0 -20 -7 -20 -30z"/>
<path d="M2960 640 c0 -23 4 -30 20 -30 16 0 20 7 20 30 0 23 -4 30 -20 30
-16 0 -20 -7 -20 -30z"/>
<path d="M3064 656 c-10 -26 0 -51 21 -51 16 0 20 7 20 30 0 33 -30 49 -41 21z"/>
<path d="M3164 656 c-10 -26 0 -51 21 -51 16 0 20 7 20 30 0 33 -30 49 -41 21z"/>
<path d="M3670 635 c0 -19 5 -35 10 -35 6 0 10 16 10 35 0 19 -4 35 -10 35 -5
0 -10 -16 -10 -35z"/>
<path d="M263 653 c-7 -2 -13 -16 -13 -30 0 -19 4 -24 16 -19 9 3 18 6 20 6 2
0 4 11 4 25 0 25 -4 28 -27 18z m4 -35 c-3 -8 -6 -5 -6 6 -1 11 2 17 5 13 3
-3 4 -12 1 -19z"/>
<path d="M3712 620 c0 -19 2 -27 5 -17 2 9 2 25 0 35 -3 9 -5 1 -5 -18z"/>
<path d="M232 615 c0 -16 2 -22 5 -12 2 9 2 23 0 30 -3 6 -5 -1 -5 -18z"/>
<path d="M3730 612 c0 -21 5 -28 20 -29 25 -2 28 42 4 51 -23 9 -24 8 -24 -22z"/>
<path d="M188 623 c-11 -3 -18 -14 -18 -30 0 -19 4 -24 16 -19 9 3 20 6 25 6
5 0 9 11 9 25 0 25 -1 26 -32 18z"/>
<path d="M3782 595 c0 -16 2 -22 5 -12 2 9 2 23 0 30 -3 6 -5 -1 -5 -18z"/>
<path d="M3800 586 c0 -18 7 -25 28 -30 15 -4 35 -9 45 -12 34 -10 19 31 -18
49 -47 22 -55 21 -55 -7z"/>
<path d="M334 555 c-8 -20 3 -48 16 -40 13 8 13 55 0 55 -6 0 -13 -7 -16 -15z"/>
<path d="M1428 535 c-3 -30 -1 -35 17 -35 18 0 20 5 17 35 -2 20 -10 35 -17
35 -7 0 -15 -15 -17 -35z"/>
<path d="M2558 535 c-3 -30 -1 -35 17 -35 18 0 20 5 17 35 -2 20 -10 35 -17
35 -7 0 -15 -15 -17 -35z"/>
<path d="M312 535 c0 -16 2 -22 5 -12 2 9 2 23 0 30 -3 6 -5 -1 -5 -18z"/>
<path d="M428 528 c-3 -28 0 -33 17 -33 17 0 20 5 17 33 -2 17 -10 32 -17 32
-7 0 -15 -15 -17 -32z"/>
<path d="M480 530 c0 -20 5 -30 15 -30 10 0 15 10 15 30 0 20 -5 30 -15 30
-10 0 -15 -10 -15 -30z"/>
<path d="M608 530 c-4 -26 -1 -30 19 -30 19 0 23 5 23 30 0 23 -5 30 -19 30
-13 0 -20 -9 -23 -30z"/>
<path d="M708 530 c-4 -27 -2 -30 22 -30 24 0 26 3 22 30 -3 20 -10 30 -22 30
-12 0 -19 -10 -22 -30z"/>
<path d="M810 531 c0 -27 4 -31 26 -31 22 0 25 4 22 28 -2 19 -9 28 -25 30
-20 3 -23 -1 -23 -27z"/>
<path d="M910 530 c0 -25 4 -30 25 -30 21 0 25 5 25 30 0 25 -4 30 -25 30 -21
0 -25 -5 -25 -30z"/>
<path d="M1018 530 c-4 -26 -1 -30 19 -30 19 0 23 5 23 30 0 23 -5 30 -19 30
-13 0 -20 -9 -23 -30z"/>
<path d="M1118 530 c-4 -27 -2 -30 22 -30 24 0 26 3 22 30 -3 20 -10 30 -22
30 -12 0 -19 -10 -22 -30z"/>
<path d="M1227 553 c-4 -3 -7 -17 -7 -30 0 -18 5 -23 25 -23 21 0 25 5 25 30
0 22 -5 30 -18 30 -10 0 -22 -3 -25 -7z"/>
<path d="M1338 531 c-3 -22 0 -31 13 -34 23 -6 29 1 29 35 0 40 -36 40 -42 -1z"/>
<path d="M2648 530 c-3 -16 -2 -32 0 -35 3 -3 183 -5 401 -5 218 0 391 4 385
8 -7 4 -14 18 -15 32 -3 17 -11 26 -26 28 -20 3 -23 -1 -23 -28 0 -28 -3 -31
-27 -28 -22 2 -29 9 -31 31 -2 19 -9 27 -23 27 -14 0 -19 -7 -19 -30 0 -27 -3
-30 -30 -30 -27 0 -30 3 -30 30 0 23 -4 30 -20 30 -16 0 -20 -7 -20 -30 0 -27
-3 -30 -30 -30 -27 0 -30 3 -30 31 0 26 -3 30 -22 27 -17 -2 -24 -11 -26 -30
-3 -22 -9 -28 -27 -28 -18 0 -24 6 -27 28 -2 19 -9 28 -25 30 -20 3 -23 -1
-23 -27 0 -28 -3 -31 -30 -31 -27 0 -30 3 -30 30 0 23 -4 30 -20 30 -16 0 -20
-7 -20 -30 0 -27 -3 -30 -30 -30 -27 0 -30 3 -30 30 0 25 -4 30 -25 30 -21 0
-25 -5 -25 -30 0 -27 -3 -30 -29 -30 -25 0 -30 4 -33 27 -4 40 -34 42 -40 3z"/>
<path d="M3518 525 c-3 -27 0 -35 12 -35 12 0 15 8 12 35 -2 19 -8 35 -12 35
-4 0 -10 -16 -12 -35z"/>
<path d="M3567 553 c-4 -3 -7 -19 -7 -35 0 -20 5 -28 18 -28 15 0 17 6 14 35
-4 34 -11 42 -25 28z"/>
<path d="M3670 530 c0 -16 5 -30 10 -30 6 0 10 14 10 30 0 17 -4 30 -10 30 -5
0 -10 -13 -10 -30z"/>
<path d="M262 525 c0 -16 2 -22 5 -12 2 9 2 23 0 30 -3 6 -5 -1 -5 -18z"/>
<path d="M280 530 c0 -11 4 -20 8 -20 4 0 8 9 8 20 0 11 -4 20 -8 20 -4 0 -8
-9 -8 -20z"/>
<path d="M242 520 c0 -14 2 -19 5 -12 2 6 2 18 0 25 -3 6 -5 1 -5 -13z"/>
<path d="M3732 515 c0 -16 2 -22 5 -12 2 9 2 23 0 30 -3 6 -5 -1 -5 -18z"/>
<path d="M171 522 c-6 -2 -11 -13 -11 -24 0 -16 5 -19 23 -14 12 3 28 6 35 6
6 0 12 9 12 20 0 19 -23 24 -59 12z"/>
<path d="M3762 510 c0 -14 2 -19 5 -12 2 6 2 18 0 25 -3 6 -5 1 -5 -13z"/>
<path d="M3782 505 c0 -16 2 -22 5 -12 2 9 2 23 0 30 -3 6 -5 -1 -5 -18z"/>
<path d="M3800 499 c0 -10 3 -19 8 -20 15 -1 40 -7 61 -14 16 -5 21 -2 21 13
0 19 -13 26 -72 37 -12 3 -18 -2 -18 -16z"/>
<path d="M250 485 c-74 -17 -32 -17 50 0 36 7 52 13 35 13 -16 0 -55 -6 -85
-13z"/>
<path d="M378 493 c6 -2 18 -2 25 0 6 3 1 5 -13 5 -14 0 -19 -2 -12 -5z"/>
<path d="M538 493 c7 -3 16 -2 19 1 4 3 -2 6 -13 5 -11 0 -14 -3 -6 -6z"/>
<path d="M3718 473 c6 -2 18 -2 25 0 6 3 1 5 -13 5 -14 0 -19 -2 -12 -5z"/>
<path d="M335 458 c-9 -22 -2 -68 10 -71 14 -3 19 63 6 76 -7 7 -12 5 -16 -5z"/>
<path d="M3768 463 c6 -2 18 -2 25 0 6 3 1 5 -13 5 -14 0 -19 -2 -12 -5z"/>
<path d="M430 425 c0 -19 5 -35 10 -35 6 0 10 16 10 35 0 19 -4 35 -10 35 -5
0 -10 -16 -10 -35z"/>
<path d="M479 456 c-5 -29 -1 -60 9 -64 15 -5 17 54 2 63 -5 3 -10 4 -11 1z"/>
<path d="M606 452 c-3 -3 -6 -18 -6 -34 0 -23 4 -28 26 -28 22 0 25 4 22 32
-3 29 -27 46 -42 30z"/>
<path d="M710 424 c0 -28 4 -34 21 -34 17 0 20 5 17 32 -2 21 -9 32 -20 34
-14 2 -18 -5 -18 -32z"/>
<path d="M810 425 c0 -28 4 -35 20 -35 16 0 20 7 20 35 0 28 -4 35 -20 35 -16
0 -20 -7 -20 -35z"/>
<path d="M910 426 c0 -32 3 -36 26 -36 23 0 25 3 22 33 -2 24 -8 33 -25 35
-20 3 -23 -1 -23 -32z"/>
<path d="M1017 453 c-4 -3 -7 -19 -7 -35 0 -23 4 -28 25 -28 22 0 25 4 25 35
0 27 -4 35 -18 35 -10 0 -22 -3 -25 -7z"/>
<path d="M1120 425 c0 -28 4 -35 20 -35 16 0 20 7 20 35 0 28 -4 35 -20 35
-16 0 -20 -7 -20 -35z"/>
<path d="M1220 426 c0 -32 3 -36 26 -36 23 0 25 3 22 33 -2 24 -8 33 -25 35
-20 3 -23 -1 -23 -32z"/>
<path d="M1337 453 c-4 -3 -7 -19 -7 -35 0 -23 4 -28 25 -28 22 0 25 4 25 35
0 27 -4 35 -18 35 -10 0 -22 -3 -25 -7z"/>
<path d="M1436 453 c-13 -13 -6 -63 9 -63 10 0 15 10 15 29 0 30 -12 46 -24
34z"/>
<path d="M2646 452 c-3 -3 -6 -18 -6 -34 0 -23 4 -28 26 -28 22 0 25 4 22 32
-3 29 -27 46 -42 30z"/>
<path d="M2756 452 c-3 -3 -6 -18 -6 -34 0 -23 4 -28 26 -28 22 0 25 4 22 32
-3 29 -27 46 -42 30z"/>
<path d="M2966 452 c-3 -3 -6 -18 -6 -34 0 -23 4 -28 26 -28 22 0 25 4 22 32
-3 29 -27 46 -42 30z"/>
<path d="M3066 452 c-3 -3 -6 -18 -6 -34 0 -23 4 -28 26 -28 22 0 25 4 22 32
-3 29 -27 46 -42 30z"/>
<path d="M3670 426 c0 -19 5 -38 10 -41 6 -4 10 10 10 34 0 23 -4 41 -10 41
-5 0 -10 -15 -10 -34z"/>
<path d="M3823 453 c9 -2 23 -2 30 0 6 3 -1 5 -18 5 -16 0 -22 -2 -12 -5z"/>
<path d="M263 415 c0 -22 2 -30 4 -17 2 12 2 30 0 40 -3 9 -5 -1 -4 -23z"/>
<path d="M283 415 c0 -22 2 -30 4 -17 2 12 2 30 0 40 -3 9 -5 -1 -4 -23z"/>
<path d="M302 420 c0 -19 2 -27 5 -17 2 9 2 25 0 35 -3 9 -5 1 -5 -18z"/>
<path d="M2560 420 c0 -20 5 -30 15 -30 10 0 15 10 15 30 0 20 -5 30 -15 30
-10 0 -15 -10 -15 -30z"/>
<path d="M2860 415 c0 -28 4 -35 20 -35 16 0 20 7 20 35 0 28 -4 35 -20 35
-16 0 -20 -7 -20 -35z"/>
<path d="M3570 420 c0 -20 5 -30 15 -30 10 0 15 10 15 30 0 20 -5 30 -15 30
-10 0 -15 -10 -15 -30z"/>
<path d="M3713 415 c0 -22 2 -30 4 -17 2 12 2 30 0 40 -3 9 -5 -1 -4 -23z"/>
<path d="M3743 415 c0 -22 2 -30 4 -17 2 12 2 30 0 40 -3 9 -5 -1 -4 -23z"/>
<path d="M203 405 c0 -22 2 -30 4 -17 2 12 2 30 0 40 -3 9 -5 -1 -4 -23z"/>
<path d="M223 405 c0 -22 2 -30 4 -17 2 12 2 30 0 40 -3 9 -5 -1 -4 -23z"/>
<path d="M243 405 c0 -22 2 -30 4 -17 2 12 2 30 0 40 -3 9 -5 -1 -4 -23z"/>
<path d="M3762 410 c0 -19 2 -27 5 -17 2 9 2 25 0 35 -3 9 -5 1 -5 -18z"/>
<path d="M3783 405 c0 -22 2 -30 4 -17 2 12 2 30 0 40 -3 9 -5 -1 -4 -23z"/>
<path d="M3803 405 c0 -22 2 -30 4 -17 2 12 2 30 0 40 -3 9 -5 -1 -4 -23z"/>
<path d="M150 400 c0 -23 4 -30 20 -30 16 0 20 7 20 30 0 23 -4 30 -20 30 -16
0 -20 -7 -20 -30z m27 -12 c-3 -7 -5 -2 -5 12 0 14 2 19 5 13 2 -7 2 -19 0
-25z"/>
<path d="M3822 400 c0 -19 2 -27 5 -17 2 9 2 25 0 35 -3 9 -5 1 -5 -18z"/>
<path d="M3841 403 c-1 -23 3 -33 14 -33 10 0 15 9 14 28 l-1 27 -8 -25 -7
-25 -5 30 -5 30 -2 -32z"/>
<path d="M1804 164 c-8 -3 -10 -20 -7 -47 8 -66 23 -68 23 -4 0 31 -1 57 -2
56 -2 0 -8 -3 -14 -5z"/>
<path d="M1880 151 c-8 -17 -7 -24 9 -40 14 -14 16 -22 8 -31 -9 -10 -9 -11 2
-8 8 2 24 17 35 31 16 22 18 32 10 45 -16 25 -51 27 -64 3z m48 -14 c2 -12 -3
-17 -17 -17 -12 0 -21 6 -21 13 0 31 32 34 38 4z"/>
<path d="M1990 144 c0 -14 4 -23 9 -20 12 8 34 -21 26 -34 -4 -6 -15 -8 -26
-5 -14 5 -17 3 -13 -9 13 -33 54 -9 54 30 0 14 -8 25 -20 29 -27 8 -25 23 3
28 19 4 18 4 -5 6 -24 1 -28 -3 -28 -25z"/>
<path d="M2090 161 c0 -6 6 -8 14 -5 8 3 17 1 21 -5 3 -6 -1 -14 -10 -17 -14
-6 -14 -8 1 -19 23 -16 9 -38 -19 -29 -21 6 -21 5 -5 -12 27 -27 50 -2 46 50
-2 34 -7 42 -25 44 -13 2 -23 -1 -23 -7z"/>
<path d="M160 120 c-10 -6 260 -10 773 -10 518 0 787 3 787 10 0 13 -1539 13
-1560 0z"/>
<path d="M2230 120 c0 -7 284 -10 831 -10 551 0 828 3 824 10 -9 14 -1655 14
-1655 0z"/>
</g>
</svg>
